HIERARCHY
ROOT Hips
{
	OFFSET 0.00000 0.00000 0.00000
	CHANNELS 6 Xposition Yposition Zposition Zrotation Yrotation Xrotation 
	JOINT LHipJoint
	{
		OFFSET 0 0 0
		CHANNELS 3 Zrotation Yrotation Xrotation
		JOINT LeftHip
		{
			OFFSET 1.58895 -1.83665 0.71753
			CHANNELS 3 Zrotation Yrotation Xrotation
			JOINT LeftKnee
			{
				OFFSET 2.50528 -6.88321 0.00000
				CHANNELS 3 Zrotation Yrotation Xrotation
				JOINT LeftAnkle
				{
					OFFSET 2.63244 -7.23257 0.00000
					CHANNELS 3 Zrotation Yrotation Xrotation
					JOINT LeftToe
					{
						OFFSET 0.23691 -0.65090 1.72750
						CHANNELS 3 Zrotation Yrotation Xrotation
						End Site
						{
							OFFSET 0.00000 -0.00000 0.92561
						}
					}
				}
			}
		}
	}
	JOINT RHipJoint
	{
		OFFSET 0 0 0
		CHANNELS 3 Zrotation Yrotation Xrotation
		JOINT RightHip
		{
			OFFSET -1.51435 -1.83665 0.71753
			CHANNELS 3 Zrotation Yrotation Xrotation
			JOINT RightKnee
			{
				OFFSET -2.54551 -6.99375 0.00000
				CHANNELS 3 Zrotation Yrotation Xrotation
				JOINT RightAnkle
				{
					OFFSET -2.66027 -7.30903 0.00000
					CHANNELS 3 Zrotation Yrotation Xrotation
					JOINT RightToe
					{
						OFFSET -0.22981 -0.63138 2.03959
						CHANNELS 3 Zrotation Yrotation Xrotation
						End Site
						{
							OFFSET -0.00000 -0.00000 1.07060
						}
					}
				}
			}
		}
	}
	JOINT lowerback
	{
		OFFSET 0 0 0
		CHANNELS 3 Zrotation Yrotation Xrotation
		JOINT Chest
		{
			OFFSET -0.02651 1.86275 -0.11152
			CHANNELS 3 Zrotation Yrotation Xrotation
			JOINT Chest2
			{
				OFFSET 0.01019 1.86224 0.04087
				CHANNELS 3 Zrotation Yrotation Xrotation
				JOINT lowerneck
				{
					OFFSET 0 0 0
					CHANNELS 3 Zrotation Yrotation Xrotation
					JOINT Neck
					{
						OFFSET -0.01926 1.80512 0.08867
						CHANNELS 3 Zrotation Yrotation Xrotation
						JOINT Head
						{
							OFFSET 0.05516 1.76451 -0.38475
							CHANNELS 3 Zrotation Yrotation Xrotation
							End Site
							{
								OFFSET 0.01592 1.82587 -0.14001
							}
						}
					}
				}
				JOINT LeftCollar
				{
					OFFSET 0 0 0
					CHANNELS 3 Zrotation Yrotation Xrotation
					JOINT LeftShoulder
					{
						OFFSET 3.47116 1.51376 0.14491
CHANNELS 3 Zrotation Xrotation Yrotation
						JOINT LeftElbow
						{
OFFSET 0 -4.780950 0.000000
CHANNELS 3 Zrotation Xrotation Yrotation
							JOINT LeftWrist
							{
OFFSET 0 -3.586150 -0.000000
CHANNELS 3 Zrotation Xrotation Yrotation
								JOINT lhand
								{
									OFFSET 0 0 0
CHANNELS 3 Zrotation Xrotation Yrotation
									JOINT LFingers
									{
OFFSET 0 -0.659810 0.000000
CHANNELS 3 Zrotation Xrotation Yrotation
										End Site
										{
OFFSET 0 -0.531960 0.000000
										}
									}
								}
								JOINT LThumb
								{
OFFSET 0 0.000000 0.000000
CHANNELS 3 Zrotation Xrotation Yrotation
									End Site
									{
OFFSET 0 -0.540080 0.540080
									}
								}
							}
						}
					}
				}
				JOINT RightCollar
				{
					OFFSET 0 0 0
					CHANNELS 3 Zrotation Yrotation Xrotation
					JOINT RightShoulder
					{
						OFFSET -3.31725 1.61216 0.35156
CHANNELS 3 Zrotation Xrotation Yrotation
						JOINT RightElbow
						{
OFFSET 0 -4.489130 0.000000
CHANNELS 3 Zrotation Xrotation Yrotation
							JOINT RightWrist
							{
OFFSET 0 -3.705100 0.000000
CHANNELS 3 Zrotation Xrotation Yrotation
								JOINT rhand
								{
									OFFSET 0 0 0
CHANNELS 3 Zrotation Xrotation Yrotation
									JOINT RFingers
									{
OFFSET 0 -0.449140 0.000000
CHANNELS 3 Zrotation Xrotation Yrotation
										End Site
										{
OFFSET 0 -0.362110 0.000000
										}
									}
								}
								JOINT RThumb
								{
OFFSET 0 0.000000 0.000000
CHANNELS 3 Zrotation Xrotation Yrotation
									End Site
									{
OFFSET 0 -0.367630 0.367630
									}
								}
							}
						}
					}
				}
			}
		}
	}
}
MOTION
Frames: 6
Frame Time: 0.008333333333333333
-0.692009 18.719237 5.520145 -2.101297 -6.608027 2.295216 0.000000 0.000000 0.000000 -12.022797 -3.045136 -5.448911 1.472375 7.667694 21.709167 1.431121 6.302356 -25.654341 8.299762 -16.335395 -53.635390 0.000000 0.000000 0.000000 0.000000 0.000000 0.000000 0.000000 0.000000 0.000000 0.000000 0.000000 0.000000 0.000000 0.000000 0.000000 -0.099373 -0.475514 13.450255 0.833479 -0.611987 3.416217 1.029216 -0.305272 -3.932540 -0.446702 -0.986592 0.335072 3.126273 -1.332067 0.628196 1.026544 -0.663013 0.161346 0.000000 0.000000 0.000000 4.379995 14.985443 -28.966603 32.418478 -42.878227 13.024705 7.927264 -3.242253 25.861971 0.000000 0.000000 0.000000 -7.125000 0.000000 0.000000 -13.176458 4.478324 -12.447742 0.000000 0.000000 0.000000 -64.847592 -19.887632 18.769165 -156.354205 -34.787425 -112.496530 24.557346 -89.321533 53.929422 0.000000 0.000000 0.000000 7.125000 0.000000 0.000000 88.287396 63.525539 -58.240730
-0.693564 18.716292 5.524235 -2.193747 -6.506656 2.201767 0.000000 0.000000 0.000000 -11.909074 -2.995377 -5.405434 1.482778 7.693564 21.787047 1.428522 6.217067 -25.582296 8.329240 -16.356163 -53.740059 0.000000 0.000000 0.000000 0.000000 0.000000 0.000000 0.000000 0.000000 0.000000 0.000000 0.000000 0.000000 0.000000 0.000000 0.000000 0.067335 -0.388341 13.175945 0.877451 -0.473797 3.429616 0.955187 -0.238494 -3.772554 -0.664861 -0.988770 0.348585 3.191574 -1.355482 1.404481 1.082648 -0.668188 0.398922 0.000000 0.000000 0.000000 4.542856 14.999680 -29.513070 32.667099 -43.072579 13.194177 7.837094 -3.389597 25.830347 0.000000 0.000000 0.000000 -7.125000 0.000000 0.000000 -13.229662 4.518599 -12.490658 0.000000 0.000000 0.000000 -64.334849 -19.294140 19.668566 -156.259994 -34.888064 -112.442635 21.523473 -87.533887 53.789286 0.000000 0.000000 0.000000 7.125000 0.000000 0.000000 86.333429 64.440957 -57.444767
-0.691372 18.713132 5.528916 -2.284110 -6.417321 2.053827 0.000000 0.000000 0.000000 -11.811213 -2.911495 -5.301180 1.492261 7.717089 21.857980 1.430189 6.083531 -25.513631 8.323918 -16.352426 -53.721208 0.000000 0.000000 0.000000 0.000000 0.000000 0.000000 0.000000 0.000000 0.000000 0.000000 0.000000 0.000000 0.000000 0.000000 0.000000 0.265799 -0.346193 12.966114 0.913212 -0.391811 3.436150 0.865291 -0.199314 -3.653701 -0.650120 -1.025278 0.472191 2.937801 -1.416417 2.054507 1.000836 -0.695134 0.576415 0.000000 0.000000 0.000000 4.649583 15.043976 -29.858080 32.810183 -43.183633 13.292049 7.725566 -3.422923 25.779761 0.000000 0.000000 0.000000 -7.125000 0.000000 0.000000 -13.295303 4.579437 -12.540673 0.000000 0.000000 0.000000 -63.739453 -19.074276 20.631065 -155.971226 -35.194680 -112.276832 21.362987 -87.382088 53.920900 0.000000 0.000000 0.000000 7.125000 0.000000 0.000000 86.500726 64.522585 -57.739329
-0.688635 18.711029 5.531565 -2.382544 -6.370701 1.958728 0.000000 0.000000 0.000000 -11.704973 -2.858488 -5.217390 1.496352 7.726989 21.887961 1.427141 6.020165 -25.451910 8.333650 -16.359243 -53.755794 0.000000 0.000000 0.000000 0.000000 0.000000 0.000000 0.000000 0.000000 0.000000 0.000000 0.000000 0.000000 0.000000 0.000000 0.000000 0.448549 -0.278218 12.812982 0.964742 -0.276606 3.370743 0.796942 -0.143133 -3.640671 -0.758918 -1.021866 0.658313 2.832371 -1.424293 2.681668 0.987157 -0.697154 0.738480 0.000000 0.000000 0.000000 4.640157 15.120417 -30.007529 32.879531 -43.237220 13.339431 7.524486 -3.405726 25.496803 0.000000 0.000000 0.000000 -7.125000 0.000000 0.000000 -13.410195 4.875674 -12.578811 0.000000 0.000000 0.000000 -63.184190 -18.768846 21.622812 -155.725853 -35.452795 -112.135024 20.253340 -86.639388 54.001003 0.000000 0.000000 0.000000 7.125000 0.000000 0.000000 86.046831 64.891556 -57.779580
-0.687202 18.710100 5.532563 -2.320462 -6.302172 1.897295 0.000000 0.000000 0.000000 -11.772806 -2.841624 -5.169730 1.495739 7.725506 21.883355 1.430155 5.947881 -25.431635 8.325039 -16.353208 -53.725158 0.000000 0.000000 0.000000 0.000000 0.000000 0.000000 0.000000 0.000000 0.000000 0.000000 0.000000 0.000000 0.000000 0.000000 0.000000 0.434585 -0.219477 12.663846 0.965531 -0.202252 3.366110 0.793065 -0.106167 -3.564874 -0.694098 -1.026480 0.416853 2.534018 -1.440735 3.503272 0.883100 -0.699990 1.030397 0.000000 0.000000 0.000000 4.723028 15.077055 -30.217659 32.956132 -43.296236 13.391944 7.364118 -3.581499 25.315488 0.000000 0.000000 0.000000 -7.125000 0.000000 0.000000 -13.503449 5.068469 -12.620934 0.000000 0.000000 0.000000 -62.833689 -18.384905 22.141487 -155.576802 -35.608552 -112.048357 20.185004 -86.749326 54.140455 0.000000 0.000000 0.000000 7.125000 0.000000 0.000000 86.287414 64.945542 -58.110610
-0.683039 18.710201 5.530603 -2.263874 -6.153067 1.851515 0.000000 0.000000 0.000000 -11.844630 -2.887720 -5.130418 1.490607 7.712917 21.845484 1.427373 5.930141 -25.399714 8.376910 -16.389561 -53.909167 0.000000 0.000000 0.000000 0.000000 0.000000 0.000000 0.000000 0.000000 0.000000 0.000000 0.000000 0.000000 0.000000 0.000000 0.000000 0.447520 -0.223963 12.490606 0.983532 -0.207257 3.359479 0.804251 -0.108645 -3.477215 -0.791164 -0.945116 0.439031 2.446179 -1.340909 4.091930 0.874002 -0.649070 1.208999 0.000000 0.000000 0.000000 4.696326 15.095597 -30.214505 33.040343 -43.361056 13.449761 7.237097 -3.549363 25.519266 0.000000 0.000000 0.000000 -7.125000 0.000000 0.000000 -13.582865 4.882545 -12.748710 0.000000 0.000000 0.000000 -62.661794 -18.343255 22.550299 -155.027623 -36.175257 -111.726165 22.338682 -88.348770 53.860568 0.000000 0.000000 0.000000 7.125000 0.000000 0.000000 86.926835 64.201806 -57.736645
